<?xml version="1.0" encoding="UTF-8"?>
<!DOCTYPE svg PUBLIC "-//W3C//DTD SVG 1.1//EN" "http://www.w3.org/Graphics/SVG/1.1/DTD/svg11.dtd">
<!-- Creator: CorelDRAW 2020 (64-Bit) -->
<svg xmlns="http://www.w3.org/2000/svg" xml:space="preserve" width="167px" height="60px" version="1.1" style="shape-rendering:geometricPrecision; text-rendering:geometricPrecision; image-rendering:optimizeQuality; fill-rule:evenodd; clip-rule:evenodd"
viewBox="0 0 150.38 54"
 xmlns:xlink="http://www.w3.org/1999/xlink"
 xmlns:xodm="http://www.corel.com/coreldraw/odm/2003">
 <defs>
  <style type="text/css">
   <![CDATA[
    .str0 {stroke:#000826;stroke-width:0.01;stroke-miterlimit:22.9256}
    .fil2 {fill:#FEFEFE}
    .fil0 {fill:#000826}
    .fil1 {fill:#005CFC}
    .fil3 {fill:#000826;fill-rule:nonzero}
   ]]>
  </style>
    <mask id="id0">
  <linearGradient id="id1" gradientUnits="userSpaceOnUse" x1="52.57" y1="19.65" x2="49.37" y2="22.81">
   <stop offset="0" style="stop-opacity:1; stop-color:white"/>
   <stop offset="1" style="stop-opacity:0; stop-color:white"/>
  </linearGradient>
     <rect style="fill:url(#id1)" x="46.16" y="22.29" width="9.15" height="3.66"/>
    </mask>
    <mask id="id2">
  <linearGradient id="id3" gradientUnits="userSpaceOnUse" x1="47.47" y1="27.92" x2="44.26" y2="31.08">
   <stop offset="0" style="stop-opacity:1; stop-color:white"/>
   <stop offset="1" style="stop-opacity:0; stop-color:white"/>
  </linearGradient>
     <rect style="fill:url(#id3)" x="41.06" y="30.57" width="9.15" height="3.66"/>
    </mask>
    <mask id="id4">
  <linearGradient id="id5" gradientUnits="userSpaceOnUse" x1="42.76" y1="38.59" x2="39.56" y2="41.75">
   <stop offset="0" style="stop-opacity:1; stop-color:white"/>
   <stop offset="1" style="stop-opacity:0; stop-color:white"/>
  </linearGradient>
     <rect style="fill:url(#id5)" x="36.36" y="41.24" width="9.15" height="3.66"/>
    </mask>
    <mask id="id6">
  <linearGradient id="id7" gradientUnits="userSpaceOnUse" x1="34.95" y1="43.62" x2="47.43" y2="22.06">
   <stop offset="0" style="stop-opacity:1; stop-color:white"/>
   <stop offset="0.341176" style="stop-opacity:0.501961; stop-color:white"/>
   <stop offset="1" style="stop-opacity:0; stop-color:white"/>
  </linearGradient>
     <rect style="fill:url(#id7)" x="28.27" y="16.47" width="24.7" height="27.45"/>
    </mask>
 </defs>
 <g id="Layer_x0020_1">
  <metadata id="CorelCorpID_0Corel-Layer"/>
  <g id="_1301571571536">
   <path class="fil0" d="M16.9 41.71l0.02 -27.76 2.31 -1.34 -1.34 -0.78 0.29 -0.16 20.12 -11.67c6.8,3.93 13.6,7.85 20.4,11.78l-1.35 0.78 2.31 1.33 0 27.82 -21.38 12.29 0 0 0 0 0 0 0 0 -21.38 -12.29zm2.71 -29.32l18.68 -10.83 18.68 10.78 0.97 -0.56 -19.64 -11.34 -19.65 11.39 0.96 0.56z"/>
   <path class="fil1" d="M42.94 12.07l0.01 7.39 9.98 5.8 0 -7.41 -9.99 -5.78zm-24.71 28.76l0.01 -26.02 10.08 5.81 -0.07 20.51 10.01 5.76 0 5.46 -20.03 -11.52zm14.72 -9.97l0 7.55 9.99 5.78 0 -7.52 -9.99 -5.81zm5.31 -8.69l-0.01 5.62 10.02 5.75 0.01 -5.58 -10.02 -5.79z"/>
   <polygon class="fil0" style="mask:url(#id0)" points="46.17,22.3 55.3,22.3 55.3,25.94 46.17,25.94 "/>
   <polygon class="fil0" style="mask:url(#id2)" points="41.07,30.58 50.2,30.58 50.2,34.22 41.07,34.22 "/>
   <polygon class="fil0 str0" style="mask:url(#id4)" points="36.37,41.25 45.5,41.25 45.5,44.89 36.37,44.89 "/>
   <path class="fil2" d="M32.98 35.43l9.99 5.78 -4.68 2.7 -10.01 -5.76 4.7 -2.72zm5.31 -16.24l4.69 -2.71 9.98 5.8 -4.65 2.7 -10.02 -5.79zm0.02 5.61l9.99 5.76 -5.33 3.13 -9.99 -5.81 5.33 -3.08z"/>
   <path class="fil1" style="mask:url(#id6)" d="M32.98 35.43l9.99 5.78 -4.68 2.7 -10.01 -5.76 4.7 -2.72zm5.31 -16.24l4.69 -2.71 9.98 5.8 -4.65 2.7 -10.02 -5.79zm0.02 5.61l9.99 5.76 -5.33 3.13 -9.99 -5.81 5.33 -3.08z"/>
   <polygon class="fil2" points="18.27,11.83 38.3,0.22 58.32,11.78 52.96,14.88 42.97,9.09 28.36,17.68 "/>
  </g>
  <path class="fil3" d="M71.55 15.98l3.17 0 6.13 21.24 -2.92 0 -4.79 -18.89 -4.8 18.89 -2.91 0 6.12 -21.24zm-2.71 14.12l9 0 0 1.96 -9 0 0 -1.96z"/>
  <path id="1" class="fil3" d="M88.36 35.26l6.46 0c0.62,0 1.11,-0.15 1.45,-0.45 0.34,-0.31 0.51,-0.74 0.51,-1.29l0 -13.85c0,-0.55 -0.17,-0.98 -0.51,-1.28 -0.34,-0.31 -0.83,-0.45 -1.45,-0.45l-6.46 0 0 -1.96 6.34 0c1,0 1.85,0.15 2.55,0.44 0.71,0.3 1.24,0.73 1.61,1.3 0.37,0.57 0.55,1.26 0.55,2.07l0 13.61c0,0.81 -0.19,1.5 -0.56,2.07 -0.37,0.57 -0.9,1 -1.61,1.3 -0.71,0.3 -1.56,0.45 -2.55,0.45l-6.33 0 0 -1.96zm-1.42 -19.28l2.62 0 0 21.24 -2.62 0 0 -21.24z"/>
  <polygon id="2" class="fil3" points="109.41,37.22 106.79,37.22 106.79,15.98 109.41,15.98 "/>
  <polygon id="3" class="fil3" points="117.17,15.98 119.62,15.98 128.03,33.42 127.6,33.79 127.6,15.98 130.18,15.98 130.18,37.2 127.68,37.2 119.32,19.76 119.76,19.38 119.76,37.2 117.17,37.2 "/>
  <path id="4" class="fil3" d="M150.38 25.78l0 6.19c0,1.15 -0.25,2.13 -0.74,2.95 -0.5,0.82 -1.22,1.44 -2.18,1.87 -0.95,0.43 -2.1,0.64 -3.44,0.64 -1.36,0 -2.52,-0.2 -3.49,-0.6 -0.98,-0.41 -1.71,-0.99 -2.22,-1.76 -0.51,-0.77 -0.76,-1.7 -0.76,-2.78l0 -11.08c0,-1.15 0.25,-2.13 0.75,-2.95 0.5,-0.81 1.22,-1.43 2.18,-1.86 0.95,-0.43 2.1,-0.64 3.43,-0.64 1.31,0 2.44,0.21 3.37,0.62 0.94,0.41 1.66,1.02 2.15,1.81 0.49,0.79 0.74,1.74 0.74,2.86l0 1.02 -2.85 0 0 -1.02c0,-0.7 -0.13,-1.28 -0.39,-1.77 -0.26,-0.49 -0.65,-0.86 -1.16,-1.11 -0.51,-0.25 -1.12,-0.38 -1.86,-0.38 -0.79,0 -1.46,0.13 -2.02,0.4 -0.56,0.27 -0.98,0.66 -1.28,1.17 -0.29,0.51 -0.43,1.13 -0.43,1.85l0 11.08c0,0.66 0.15,1.22 0.45,1.68 0.31,0.47 0.74,0.83 1.32,1.07 0.57,0.24 1.26,0.37 2.07,0.37 0.79,0 1.47,-0.14 2.03,-0.4 0.56,-0.26 0.98,-0.65 1.27,-1.16 0.29,-0.5 0.44,-1.11 0.44,-1.82l0 -4.29 -3.83 0 0 -1.96 6.45 0z"/>
  <path class="fil3" d="M0 15.97l2.63 0 0 21.24 -2.63 0 0 -21.24zm1.86 19.28l9.15 0 0 1.96 -9.15 0 0 -1.96z"/>
 </g>
</svg>
